<svg width="177" height="208" viewBox="0 0 177 208" fill="none" xmlns="http://www.w3.org/2000/svg">
<path fill-rule="evenodd" clip-rule="evenodd" d="M88.5082 0.189897L88.5358 0.139158L114.018 14.1598L151.338 19.0144L148.537 33.1719L159.898 47.0892L176.792 67.9299H158.995L159.022 68.0379H159.021L159.094 68.3336L176.792 140.525L153.818 135.224L138.136 171.285L130.868 187.764L114.064 179.819L114.205 179.665L130.679 187.657L153.86 135.098L176.625 140.38L158.746 67.8215H176.545L148.306 33.2299L151.097 19.1203L114.196 14.2642L88.5082 0.189897ZM98.4967 196.878L114.018 179.798L114.064 179.819L98.4967 196.878ZM88.5033 207.875L88.6395 208L114.256 179.93L130.786 187.95L130.868 187.764L130.952 187.804L138.136 171.285L153.985 135.349L176.919 140.67L159.094 68.3336L159.022 68.0379H177L159.898 47.0892L148.641 33.2011L151.445 19.0283L151.338 19.0144L151.354 18.9358L114.264 14.0549L88.6116 0L88.5358 0.139158L88.4559 0.0951598L88.4437 0.101816L88.3884 0.000211307L62.7358 14.0551L25.6462 18.9361L28.463 33.1721L0 68.0381H17.9787L0.0808626 140.67L23.0153 135.349L46.214 187.95L62.7445 179.93L88.3605 208L88.4487 207.919L88.4559 207.927L88.5033 207.875ZM88.5001 207.872L88.5033 207.875L98.4967 196.878L88.4999 207.832L62.7951 179.665L46.3209 187.658L23.1405 135.098L0.374591 140.38L18.2542 67.8217H0.455453L28.6944 33.2301L25.9026 19.1205L62.8038 14.2644L88.4918 0.190108L88.4437 0.101816L62.7856 14.1598L25.7902 19.0283L28.5945 33.2011L0.227727 67.9299H18.1242L0.227727 140.525L23.0937 135.224L46.2833 187.804L62.7856 179.798L88.4487 207.919L88.5001 207.872ZM88.5001 207.872L88.4804 207.854L88.4999 207.832L88.5197 207.854L88.5001 207.872ZM60.8441 125.489L37.9782 92.2746L61.4913 63.1717H115.205L138.718 92.2746L115.852 125.489L119.627 132.521L107.547 153.402L88.348 147.235L69.1492 153.402L57.0691 132.521L60.8441 125.489ZM74.2186 100.822L67.9628 89.5699L50.7054 87.0815L58.5791 97.3595L74.2186 100.822ZM102.477 100.822L108.733 89.5699L125.991 87.0815L118.117 97.3595L102.477 100.822ZM88.348 135.442L74.2186 125.489L88.348 127.977L102.477 125.489L88.348 135.442Z" fill="white"/>
</svg>
