<svg width="797" height="205" viewBox="0 0 797 205" fill="none" xmlns="http://www.w3.org/2000/svg">
<path d="M294.793 85.8609C294.151 83.6254 293.25 81.6502 292.089 79.9353C290.928 78.1898 289.507 76.7199 287.826 75.5256C286.176 74.3007 284.282 73.3667 282.143 72.7236C280.034 72.0805 277.697 71.7589 275.13 71.7589C270.333 71.7589 266.116 72.9532 262.48 75.3418C258.874 77.7305 256.063 81.2062 254.046 85.769C252.03 90.3013 251.021 95.8441 251.021 102.397C251.021 108.951 252.014 114.524 254 119.118C255.987 123.711 258.798 127.218 262.434 129.637C266.07 132.025 270.363 133.22 275.313 133.22C279.805 133.22 283.64 132.423 286.818 130.831C290.026 129.208 292.471 126.927 294.151 123.987C295.863 121.047 296.718 117.571 296.718 113.56L300.752 114.157H276.551V99.182H315.831V111.033C315.831 119.301 314.089 126.406 310.606 132.347C307.122 138.257 302.325 142.82 296.214 146.035C290.103 149.22 283.105 150.813 275.222 150.813C266.422 150.813 258.691 148.868 252.03 144.979C245.368 141.059 240.174 135.501 236.446 128.305C232.749 121.078 230.9 112.503 230.9 102.581C230.9 94.956 232 88.1576 234.2 82.1861C236.431 76.184 239.547 71.1005 243.55 66.9358C247.553 62.771 252.213 59.6015 257.53 57.4273C262.847 55.253 268.606 54.1659 274.809 54.1659C280.126 54.1659 285.076 54.9468 289.66 56.5086C294.243 58.0398 298.307 60.214 301.852 63.0313C305.427 65.8487 308.345 69.2019 310.606 73.091C312.867 76.9496 314.318 81.2062 314.96 85.8609H294.793Z" fill="black"/>
<path d="M330.739 149.526V55.4521H393.99V71.8508H350.585V94.267H390.736V110.666H350.585V133.128H394.173V149.526H330.739Z" fill="black"/>
<path d="M409.769 55.4521H434.244L460.095 118.658H461.195L487.045 55.4521H511.521V149.526H492.27V88.2955H491.491L467.199 149.067H454.09L429.798 88.0658H429.019V149.526H409.769V55.4521Z" fill="black"/>
<path d="M544.052 149.526H522.785L555.189 55.4521H580.765L613.124 149.526H591.857L568.344 76.9496H567.611L544.052 149.526ZM542.722 112.549H592.957V128.075H542.722V112.549Z" fill="black"/>
<path d="M702.833 88.3873H682.758C682.391 85.7844 681.643 83.4723 680.512 81.4512C679.381 79.3994 677.93 77.6539 676.158 76.2146C674.385 74.7753 672.338 73.6729 670.016 72.9073C667.724 72.1417 665.234 71.7589 662.545 71.7589C657.686 71.7589 653.454 72.9686 649.849 75.3878C646.243 77.7764 643.447 81.2674 641.461 85.8609C639.475 90.4238 638.482 95.9665 638.482 102.489C638.482 109.196 639.475 114.83 641.461 119.393C643.478 123.956 646.289 127.401 649.895 129.729C653.5 132.056 657.671 133.22 662.407 133.22C665.066 133.22 667.526 132.867 669.787 132.163C672.078 131.459 674.11 130.433 675.883 129.086C677.655 127.707 679.122 126.039 680.283 124.079C681.475 122.119 682.3 119.883 682.758 117.372L702.833 117.464C702.314 121.782 701.015 125.947 698.937 129.958C696.89 133.939 694.125 137.507 690.641 140.661C687.189 143.785 683.063 146.265 678.266 148.103C673.499 149.909 668.106 150.813 662.087 150.813C653.714 150.813 646.228 148.914 639.628 145.117C633.058 141.319 627.864 135.823 624.044 128.626C620.255 121.43 618.361 112.717 618.361 102.489C618.361 92.2305 620.286 83.5029 624.136 76.3065C627.986 69.11 633.211 63.6285 639.811 59.8618C646.411 56.0646 653.836 54.1659 662.087 54.1659C667.526 54.1659 672.567 54.9315 677.212 56.4627C681.887 57.9938 686.027 60.2293 689.633 63.1691C693.239 66.0783 696.172 69.6459 698.433 73.8719C700.725 78.0979 702.192 82.9364 702.833 88.3873Z" fill="black"/>
<path d="M717.065 149.526V55.4521H736.911V94.267H777.2V55.4521H797V149.526H777.2V110.666H736.911V149.526H717.065Z" fill="black"/>
<path fill-rule="evenodd" clip-rule="evenodd" d="M88.1151 0L62.4777 13.873L25.5297 18.6752L28.3304 32.6549L0 66.9105H17.8735L0 138.516L22.8367 133.287L45.9965 185.151L62.4777 177.254L88.1151 205L113.645 177.254L130.557 185.151L153.393 133.287L176.338 138.516L158.564 66.9105H176.338L148.223 32.6549L151.024 18.6752L113.645 13.873L88.1151 0ZM40.0752 76.8432L61.8411 108.069L58.2477 114.68L69.7467 134.31L88.0218 128.513L106.297 134.31L117.796 114.68L114.203 108.069L135.968 76.8432L113.587 49.4828H62.4571L40.0752 76.8432ZM68.6119 74.2992L74.5667 84.8773L59.6796 81.6225L52.1847 71.9599L68.6119 74.2992ZM107.421 74.2992L101.466 84.8773L116.353 81.6225L123.848 71.9599L107.421 74.2992ZM74.5667 108.068L88.0164 117.425L101.466 108.068L88.0164 110.407L74.5667 108.068Z" fill="black"/>
</svg>
