<?xml version="1.0" encoding="utf-8"?>
<!-- Generator: Adobe Illustrator 27.8.0, SVG Export Plug-In . SVG Version: 6.00 Build 0)  -->
<svg version="1.1" id="Layer_1" xmlns="http://www.w3.org/2000/svg" xmlns:xlink="http://www.w3.org/1999/xlink" x="0px" y="0px"
	 viewBox="0 0 512 512" style="enable-background:new 0 0 512 512;" xml:space="preserve">
<style type="text/css">
	.st0{fill:#060A16;}
	.st1{fill:#2EDFDF;}
</style>
<rect class="st0" width="512" height="512"/>
<g>
	<polygon class="st1" points="231.7,266 255.8,282.6 279.9,266 255.8,270.1 	"/>
	<polygon class="st1" points="221,205.7 191.7,201.5 205.1,218.7 231.7,224.6 	"/>
	<path class="st1" d="M363.3,131.4l5-25l-66.8-8.6L256,73l-45.7,24.8l-66.1,8.6l5,25l-50.5,61.1h32l-32,127.8l40.7-9.3l41.4,92.7
		l29.5-14.1L256,439l45.5-49.5l30.2,14.1l40.7-92.7l40.9,9.3l-32-127.7h31.8L363.3,131.4z M302.6,266l6.4,11.8l-20.5,35l-32.7-10.4
		l-32.7,10.4l-20.5-35L209,266l-38.7-55.9l40-48.7h91.2l40,48.9L302.6,266z"/>
	<polygon class="st1" points="279.9,224.6 306.5,218.7 319.6,201.5 290.5,205.7 	"/>
</g>
</svg>
